HIERARCHY
ROOT Hips
{
	OFFSET 0.00000 0.00000 0.00000
	CHANNELS 6 Xposition Yposition Zposition Zrotation Yrotation Xrotation 
	JOINT LHipJoint
	{
		OFFSET 0 0 0
		CHANNELS 3 Zrotation Yrotation Xrotation
		JOINT LeftHip
		{
			OFFSET 1.84395 -1.68683 0.74144
			CHANNELS 3 Zrotation Yrotation Xrotation
			JOINT LeftKnee
			{
				OFFSET 2.27037 -6.23779 0.00000
				CHANNELS 3 Zrotation Yrotation Xrotation
				JOINT LeftAnkle
				{
					OFFSET 2.56918 -7.05877 0.00000
					CHANNELS 3 Zrotation Yrotation Xrotation
					JOINT LeftToe
					{
						OFFSET 0.22276 -0.61202 1.71784
						CHANNELS 3 Zrotation Yrotation Xrotation
						End Site
						{
							OFFSET 0.00000 -0.00000 0.91613
						}
					}
				}
			}
		}
	}
	JOINT RHipJoint
	{
		OFFSET 0 0 0
		CHANNELS 3 Zrotation Yrotation Xrotation
		JOINT RightHip
		{
			OFFSET -1.76833 -1.68684 0.74144
			CHANNELS 3 Zrotation Yrotation Xrotation
			JOINT RightKnee
			{
				OFFSET -2.49360 -6.85110 0.00000
				CHANNELS 3 Zrotation Yrotation Xrotation
				JOINT RightAnkle
				{
					OFFSET -2.55538 -7.02085 0.00000
					CHANNELS 3 Zrotation Yrotation Xrotation
					JOINT RightToe
					{
						OFFSET -0.21516 -0.59115 1.68050
						CHANNELS 3 Zrotation Yrotation Xrotation
						End Site
						{
							OFFSET -0.00000 -0.00000 0.89604
						}
					}
				}
			}
		}
	}
	JOINT lowerback
	{
		OFFSET 0 0 0
		CHANNELS 3 Zrotation Yrotation Xrotation
		JOINT Chest
		{
			OFFSET 0.06382 1.72312 -0.19613
			CHANNELS 3 Zrotation Yrotation Xrotation
			JOINT Chest2
			{
				OFFSET -0.00055 1.73507 0.23859
				CHANNELS 3 Zrotation Yrotation Xrotation
				JOINT lowerneck
				{
					OFFSET 0 0 0
					CHANNELS 3 Zrotation Yrotation Xrotation
					JOINT Neck
					{
						OFFSET 0.03638 1.65562 0.09633
						CHANNELS 3 Zrotation Yrotation Xrotation
						JOINT Head
						{
							OFFSET 0.06388 1.62807 -0.32386
							CHANNELS 3 Zrotation Yrotation Xrotation
							End Site
							{
								OFFSET 0.00995 1.67644 -0.12021
							}
						}
					}
				}
				JOINT LeftCollar
				{
					OFFSET 0 0 0
					CHANNELS 3 Zrotation Yrotation Xrotation
					JOINT LeftShoulder
					{
						OFFSET 3.09648 1.42991 0.28122
CHANNELS 3 Zrotation Xrotation Yrotation
						JOINT LeftElbow
						{
OFFSET 0 -5.118780 -0.000000
CHANNELS 3 Zrotation Xrotation Yrotation
							JOINT LeftWrist
							{
OFFSET 0 -3.599710 0.000000
CHANNELS 3 Zrotation Xrotation Yrotation
								JOINT lhand
								{
									OFFSET 0 0 0
CHANNELS 3 Zrotation Xrotation Yrotation
									JOINT LFingers
									{
OFFSET 0 -0.628770 0.000000
CHANNELS 3 Zrotation Xrotation Yrotation
										End Site
										{
OFFSET 0 -0.506930 0.000000
										}
									}
								}
								JOINT LThumb
								{
OFFSET 0 0.000000 0.000000
CHANNELS 3 Zrotation Xrotation Yrotation
									End Site
									{
OFFSET 0 -0.514670 0.514670
									}
								}
							}
						}
					}
				}
				JOINT RightCollar
				{
					OFFSET 0 0 0
					CHANNELS 3 Zrotation Yrotation Xrotation
					JOINT RightShoulder
					{
						OFFSET -3.33565 1.14597 0.05047
CHANNELS 3 Zrotation Xrotation Yrotation
						JOINT RightElbow
						{
OFFSET 0 -5.490200 0.000000
CHANNELS 3 Zrotation Xrotation Yrotation
							JOINT RightWrist
							{
OFFSET 0 -3.206590 -0.000000
CHANNELS 3 Zrotation Xrotation Yrotation
								JOINT rhand
								{
									OFFSET 0 0 0
CHANNELS 3 Zrotation Xrotation Yrotation
									JOINT RFingers
									{
OFFSET 0 -0.691880 0.000000
CHANNELS 3 Zrotation Xrotation Yrotation
										End Site
										{
OFFSET 0 -0.557810 0.000000
										}
									}
								}
								JOINT RThumb
								{
OFFSET 0 0.000000 0.000000
CHANNELS 3 Zrotation Xrotation Yrotation
									End Site
									{
OFFSET 0 -0.566330 0.566330
									}
								}
							}
						}
					}
				}
			}
		}
	}
}
MOTION
Frames: 5
Frame Time: .0083333
0.8341 17.5905 9.5434 -9.7339 -12.0741 14.2091 0.0000 0.0000 0.0000 -15.5128 -33.6129 16.4893 0.0337 -1.1856 -3.2597 -4.7106 41.6941 -42.4995 0.6989 5.3440 14.8924 0.0000 0.0000 0.0000 25.3608 26.9897 0.1606 -0.0087 -0.6023 1.6552 0.4081 -14.8389 -15.8110 -0.0682 -1.6848 4.6353 3.3098 -2.7274 5.4180 2.5904 -3.0680 -10.4652 1.5866 -1.6520 -14.5981 1.5947 -1.3209 -18.6777 1.9747 -2.9700 23.8754 0.0041 -0.9852 10.8027 0.0000 0.0000 0.0000 7.176 -18.0347 -88.6417 140.8441 -47.5617 102.1863 7.8082 -53.9949 19.97 0.0 0.0 0.0 -7.1250 0.0 0.0 -13.2130 10.2486 -10.9545 0.0000 0.0000 0.0000 -47.1977 7.8502 16.0333 -101.8586 -59.4619 -70.2513 11.2343 -32.7705 32.0595 0.0 0.0 0.0 7.1250 0.0 -0.0 45.8389 55.9101 -14.4067
0.8239 17.5876 9.5546 -9.6774 -12.0140 14.1107 0.0000 0.0000 0.0000 -15.7093 -33.7096 16.7817 0.0346 -1.2011 -3.3024 -4.6823 41.7179 -42.6772 0.6955 5.3311 14.8553 0.0000 0.0000 0.0000 25.4330 27.0431 0.4072 -0.0082 -0.5835 1.6033 0.4108 -14.9455 -15.9781 -0.0760 -1.7779 4.8922 3.5077 -2.6024 5.1700 2.5753 -2.8855 -10.4590 1.4115 -1.5899 -14.4444 1.4639 -1.3136 -18.5180 1.7178 -2.8509 24.0638 -0.0484 -0.9737 10.8372 0.0000 0.0000 0.0000 8.4373 -15.5932 -84.4399 141.6706 -47.0484 102.7937 6.7996 -52.2006 19.4903 0.0 0.0 0.0 -7.1250 0.0 0.0 -13.8615 10.7951 -11.3665 0.0000 0.0000 0.0000 -45.6438 9.3731 16.4814 -109.8647 -58.4552 -77.1141 13.0838 -33.8584 30.6536 0.0 0.0 0.0 7.1250 0.0 -0.0 46.1197 54.503 -12.8102
0.8116 17.5830 9.5661 -9.6166 -11.9168 13.9929 0.0000 0.0000 0.0000 -15.8506 -33.7047 16.9980 0.0353 -1.2135 -3.3365 -4.6949 41.7251 -42.6406 0.6874 5.3006 14.7679 0.0000 0.0000 0.0000 25.5184 27.0620 0.6683 -0.0077 -0.5667 1.5573 0.4190 -15.0895 -16.1337 -0.0791 -1.8137 4.9911 3.7067 -2.5005 4.9011 2.5906 -2.7338 -10.4361 1.2739 -1.5396 -14.2551 1.3142 -1.2696 -18.2703 1.4405 -2.6646 24.2097 -0.0945 -0.9375 10.8390 0.0000 -0.0000 0.0000 9.6803 -13.0458 -80.2731 142.7277 -46.3682 103.5632 4.5432 -51.5487 18.9674 0.0 0.0 0.0 -7.1250 0.0 0.0 -15.3115 11.4558 -12.4289 0.0000 -0.0000 0.0000 -44.0331 10.8137 17.2424 -118.1418 -56.7851 -84.1085 15.5647 -35.9545 30.5437 0.0 0.0 0.0 7.1250 0.0 -0.0 48.1314 53.942 -12.8633
0.7994 17.5772 9.5785 -9.4983 -11.7846 13.8540 0.0000 0.0000 0.0000 -16.0810 -33.7096 17.2257 0.0356 -1.2178 -3.3483 -4.7476 41.7776 -42.5392 0.6533 5.1700 14.3941 0.0000 0.0000 0.0000 25.5279 26.9788 0.9174 -0.0069 -0.5360 1.4729 0.4284 -15.2076 -16.2174 -0.0766 -1.7859 4.9144 3.9056 -2.4071 4.6305 2.5750 -2.5987 -10.4162 1.1065 -1.4987 -14.0698 1.2132 -1.1973 -18.0401 1.1276 -2.4475 24.4618 -0.1580 -0.8859 10.8830 0.0000 0.0000 0.0000 10.9039 -10.3721 -76.4628 144.0911 -45.4503 104.5425 1.9887 -51.4699 17.9925 0.0 0.0 0.0 -7.1250 0.0 0.0 -16.9809 12.532 -13.513 0.0000 0.0000 0.0000 -42.2203 12.1538 18.1528 -125.5991 -54.6233 -90.2731 18.3657 -37.6117 29.1207 0.0 0.0 0.0 7.1250 0.0 -0.0 49.1655 52.3879 -11.1369
0.7857 17.5716 9.5892 -9.3830 -11.6223 13.7252 0.0000 0.0000 0.0000 -16.3194 -33.7969 17.4607 0.0350 -1.2073 -3.3193 -4.7697 41.8241 -42.5553 0.6281 5.0712 14.1117 0.0000 0.0000 0.0000 25.5261 26.8746 1.1203 -0.0064 -0.5154 1.4163 0.4332 -15.2857 -16.2970 -0.0713 -1.7226 4.7397 4.9889 -2.4158 5.6526 1.9843 -2.4647 -11.0949 -0.0747 -1.6112 -15.6606 1.7102 -1.0612 -17.7484 0.9647 -2.3924 25.5272 -0.2960 -0.8251 11.2172 0.0000 -0.0000 0.0000 12.9819 -6.2489 -73.0649 145.8322 -44.2087 105.7701 -1.7054 -50.3557 17.0219 0.0 0.0 0.0 -7.1250 0.0 0.0 -19.3889 13.5909 -15.2052 0.0000 -0.0000 0.0000 -39.3818 14.335 20.2005 -132.3622 -51.9972 -95.7 20.0188 -38.2642 26.7066 0.0 0.0 0.0 7.1250 0.0 -0.0 48.4377 50.3353 -8.0354
